<svg id="Raggruppa_1" data-name="Raggruppa 1" xmlns="http://www.w3.org/2000/svg" xmlns:xlink="http://www.w3.org/1999/xlink" width="126" height="126" viewBox="0 0 126 126">
    <defs>
        <filter id="Tracciato_2" x="0" y="0" width="126" height="126" filterUnits="userSpaceOnUse">
            <feOffset dy="6" input="SourceAlpha"/>
            <feGaussianBlur stdDeviation="3" result="blur"/>
            <feFlood flood-opacity="0.161" result="color"/>
            <feComposite operator="out" in="SourceGraphic" in2="blur"/>
            <feComposite operator="in" in="color"/>
            <feComposite operator="in" in2="SourceGraphic"/>
        </filter>
    </defs>
    <g id="Componente_1_6" data-name="Componente 1 – 6" transform="translate(13 13)">
        <path id="Tracciato_1" data-name="Tracciato 1" d="M7.5,0h84a7.5,7.5,0,0,1,0,15H7.5a7.5,7.5,0,0,1,0-15Z" transform="translate(0 42)" fill="#707070"/>
        <rect id="Rettangolo_5" data-name="Rettangolo 5" width="99" height="15" rx="7.5" transform="translate(57) rotate(90)" fill="#707070"/>
    </g>
    <g data-type="innerShadowGroup">
        <g transform="matrix(1, 0, 0, 1, 0, 0)" filter="url(#Tracciato_2)">
            <g id="Tracciato_2-2" data-name="Tracciato 2" fill="#fff">
                <path d="M63,0A63,63,0,1,1,0,63,63,63,0,0,1,63,0Z" stroke="none"/>
                <path d="M 63 1.800003051757812 C 54.73725128173828 1.800003051757812 46.72263336181641 3.417869567871094 39.17874908447266 6.608657836914062 C 35.55278015136719 8.142311096191406 32.05539703369141 10.04065704345703 28.78374481201172 12.25093078613281 C 25.54270935058594 14.44052886962891 22.49492645263672 16.95518493652344 19.72505187988281 19.72505187988281 C 16.95518493652344 22.49492645263672 14.44052886962891 25.54270935058594 12.25093078613281 28.78374481201172 C 10.04065704345703 32.05539703369141 8.142311096191406 35.55278015136719 6.608657836914062 39.17874908447266 C 3.417869567871094 46.72263336181641 1.800003051757812 54.73725128173828 1.800003051757812 63 C 1.800003051757812 71.26274108886719 3.417869567871094 79.27735900878906 6.608657836914062 86.82125854492188 C 8.142311096191406 90.44721984863281 10.04065704345703 93.94459533691406 12.25093078613281 97.21625518798828 C 14.44052886962891 100.4572906494141 16.95518493652344 103.5050735473633 19.72505187988281 106.2749481201172 C 22.49492645263672 109.0448150634766 25.54270935058594 111.5594711303711 28.78374481201172 113.7490692138672 C 32.05539703369141 115.959342956543 35.55278015136719 117.8576889038086 39.17874908447266 119.3913421630859 C 46.72263336181641 122.5821304321289 54.73725128173828 124.1999969482422 63 124.1999969482422 C 71.26274108886719 124.1999969482422 79.27735900878906 122.5821304321289 86.82125854492188 119.3913421630859 C 90.44721984863281 117.8576889038086 93.94459533691406 115.959342956543 97.21625518798828 113.7490692138672 C 100.4572906494141 111.5594711303711 103.5050735473633 109.0448150634766 106.2749481201172 106.2749481201172 C 109.0448150634766 103.5050735473633 111.5594711303711 100.4572906494141 113.7490692138672 97.21625518798828 C 115.959342956543 93.94459533691406 117.8576889038086 90.44721984863281 119.3913421630859 86.82125854492188 C 122.5821304321289 79.27735900878906 124.1999969482422 71.26274108886719 124.1999969482422 63 C 124.1999969482422 54.73725128173828 122.5821304321289 46.72263336181641 119.3913421630859 39.17874908447266 C 117.8576889038086 35.55278015136719 115.959342956543 32.05539703369141 113.7490692138672 28.78374481201172 C 111.5594711303711 25.54270935058594 109.0448150634766 22.49492645263672 106.2749481201172 19.72505187988281 C 103.5050735473633 16.95518493652344 100.4572906494141 14.44052886962891 97.21625518798828 12.25093078613281 C 93.94459533691406 10.04065704345703 90.44721984863281 8.142311096191406 86.82125854492188 6.608657836914062 C 79.27735900878906 3.417869567871094 71.26274108886719 1.800003051757812 63 1.800003051757812 M 63 0 C 97.7939453125 0 126 28.2060546875 126 63 C 126 97.7939453125 97.7939453125 126 63 126 C 28.2060546875 126 0 97.7939453125 0 63 C 0 28.2060546875 28.2060546875 0 63 0 Z" stroke="none"/>
            </g>
        </g>
        <g id="Tracciato_2-3" data-name="Tracciato 2" fill="none" stroke-linecap="round">
            <path d="M63,0A63,63,0,1,1,0,63,63,63,0,0,1,63,0Z" stroke="none"/>
            <path d="M 63 1.800003051757812 C 54.73725128173828 1.800003051757812 46.72263336181641 3.417869567871094 39.17874908447266 6.608657836914062 C 35.55278015136719 8.142311096191406 32.05539703369141 10.04065704345703 28.78374481201172 12.25093078613281 C 25.54270935058594 14.44052886962891 22.49492645263672 16.95518493652344 19.72505187988281 19.72505187988281 C 16.95518493652344 22.49492645263672 14.44052886962891 25.54270935058594 12.25093078613281 28.78374481201172 C 10.04065704345703 32.05539703369141 8.142311096191406 35.55278015136719 6.608657836914062 39.17874908447266 C 3.417869567871094 46.72263336181641 1.800003051757812 54.73725128173828 1.800003051757812 63 C 1.800003051757812 71.26274108886719 3.417869567871094 79.27735900878906 6.608657836914062 86.82125854492188 C 8.142311096191406 90.44721984863281 10.04065704345703 93.94459533691406 12.25093078613281 97.21625518798828 C 14.44052886962891 100.4572906494141 16.95518493652344 103.5050735473633 19.72505187988281 106.2749481201172 C 22.49492645263672 109.0448150634766 25.54270935058594 111.5594711303711 28.78374481201172 113.7490692138672 C 32.05539703369141 115.959342956543 35.55278015136719 117.8576889038086 39.17874908447266 119.3913421630859 C 46.72263336181641 122.5821304321289 54.73725128173828 124.1999969482422 63 124.1999969482422 C 71.26274108886719 124.1999969482422 79.27735900878906 122.5821304321289 86.82125854492188 119.3913421630859 C 90.44721984863281 117.8576889038086 93.94459533691406 115.959342956543 97.21625518798828 113.7490692138672 C 100.4572906494141 111.5594711303711 103.5050735473633 109.0448150634766 106.2749481201172 106.2749481201172 C 109.0448150634766 103.5050735473633 111.5594711303711 100.4572906494141 113.7490692138672 97.21625518798828 C 115.959342956543 93.94459533691406 117.8576889038086 90.44721984863281 119.3913421630859 86.82125854492188 C 122.5821304321289 79.27735900878906 124.1999969482422 71.26274108886719 124.1999969482422 63 C 124.1999969482422 54.73725128173828 122.5821304321289 46.72263336181641 119.3913421630859 39.17874908447266 C 117.8576889038086 35.55278015136719 115.959342956543 32.05539703369141 113.7490692138672 28.78374481201172 C 111.5594711303711 25.54270935058594 109.0448150634766 22.49492645263672 106.2749481201172 19.72505187988281 C 103.5050735473633 16.95518493652344 100.4572906494141 14.44052886962891 97.21625518798828 12.25093078613281 C 93.94459533691406 10.04065704345703 90.44721984863281 8.142311096191406 86.82125854492188 6.608657836914062 C 79.27735900878906 3.417869567871094 71.26274108886719 1.800003051757812 63 1.800003051757812 M 63 0 C 97.7939453125 0 126 28.2060546875 126 63 C 126 97.7939453125 97.7939453125 126 63 126 C 28.2060546875 126 0 97.7939453125 0 63 C 0 28.2060546875 28.2060546875 0 63 0 Z" stroke="none" fill="#707070"/>
        </g>
    </g>
</svg>

